<svg width="24" height="24" fill="currentColor" viewBox="0 0 24 24" xmlns="http://www.w3.org/2000/svg">
  <style>
    svg {
      color: #000;
    }
    @media (prefers-color-scheme: dark) {
      svg {
        color: #ffffff;
      }
    }
  </style>
  <path d="m13.1294 20.8356 4.0117-14.97189c.4635-1.72957 2.0108-3.1687 3.4388-3.15394.2762.00285.4363.28293.3649.54966L16.9331 18.2313c-.4635 1.7296-2.0108 3.1687-3.4389 3.1539-.2761-.0028-.4363-.2829-.3648-.5496ZM6.85594 10.2862l1.11075-4.14531c.46343-1.72957 2.0108-3.16871 3.43881-3.15395.034.00035.0662.00489.0964.01308.8275.00102 1.4981.6722 1.4981 1.5 0 .82843-.6716 1.5-1.5 1.5-.1302 0-.2565-.01659-.3769-.04776L9.93352 10.3917c1.42748.3099 2.68058 1.2674 2.97148 2.3999.0688.2675-.1603.4946-.4365.4946H9.15792l-1.39929 5.2223c-.46343 1.7295-2.0108 3.1687-3.43883 3.1539-.27612-.0029-.43628-.2829-.36481-.5497l2.12129-7.9167c-1.45745-.2927-2.74838-1.2634-3.04426-2.4151-.06871-.2675.16037-.4947.43651-.4947h3.38741Z" />
</svg>