<svg width="48" height="48" viewBox="0 0 48 48" fill="none" xmlns="http://www.w3.org/2000/svg">
    <path fill-rule="evenodd" clip-rule="evenodd" d="M14.0656 19.9999L16.2822 11.7273C17.3175 7.8636 21.0574 4.72459 24.1483 5.55281L20.2037 20.2744C23.3482 21.0541 26 23.3944 26 25.9999H18.6696L15.8661 36.4624C14.8308 40.3262 11.091 43.4652 8.00002 42.6369L12.4925 25.8707C9.05343 25.2863 6 22.7958 6 19.9999H14.0656Z" fill="currentColor" />
    <path d="M30.0781 40.5293C29.1418 41.2807 28.1646 41.6974 27.27 41.7612L35.2482 11.9862C35.7088 10.267 36.7795 8.69644 38.0703 7.66062C39.0065 6.90929 39.9838 6.49257 40.8784 6.42879L32.9002 36.2037C32.4395 37.9229 31.3689 39.4935 30.0781 40.5293Z" fill="currentColor" stroke="currentColor" stroke-width="2" stroke-linejoin="round" />
</svg>